<?xml version="1.0" encoding="UTF-8"?>
<!DOCTYPE svg PUBLIC "-//W3C//DTD SVG 1.1//EN" "http://www.w3.org/Graphics/SVG/1.1/DTD/svg11.dtd">
<svg xmlns="http://www.w3.org/2000/svg" version="1.1" width="512px" height="512px" style="shape-rendering:geometricPrecision; text-rendering:geometricPrecision; image-rendering:optimizeQuality; fill-rule:evenodd; clip-rule:evenodd" xmlns:xlink="http://www.w3.org/1999/xlink">
<g><path style="opacity:0.95" fill="#f65ba1" d="M 435.5,51.5 C 425.167,51.5 414.833,51.5 404.5,51.5C 404.666,44.4921 404.5,37.4921 404,30.5C 403.5,28.6667 402.333,27.5 400.5,27C 360.5,26.3333 320.5,26.3333 280.5,27C 279.667,27.8333 278.833,28.6667 278,29.5C 277.5,40.8284 277.333,52.1618 277.5,63.5C 276.517,59.7016 276.183,55.7016 276.5,51.5C 262.5,51.5 248.5,51.5 234.5,51.5C 234.817,55.7016 234.483,59.7016 233.5,63.5C 233.667,52.1618 233.5,40.8284 233,29.5C 232.167,28.6667 231.333,27.8333 230.5,27C 190.5,26.3333 150.5,26.3333 110.5,27C 108.667,27.5 107.5,28.6667 107,30.5C 106.5,37.4921 106.334,44.4921 106.5,51.5C 96.1667,51.5 85.8333,51.5 75.5,51.5C 74.7784,51.0825 74.2784,50.4158 74,49.5C 73.0722,42.0598 73.4055,34.7265 75,27.5C 75.7504,26.8742 76.5838,26.3742 77.5,26C 83.8594,25.8306 90.1928,25.3306 96.5,24.5C 98.3635,20.47 101.363,17.6367 105.5,16C 148.5,15.3333 191.5,15.3333 234.5,16C 238.78,17.9466 242.113,20.9466 244.5,25C 252.159,25.4997 259.826,25.6664 267.5,25.5C 268.885,20.9444 271.885,17.7777 276.5,16C 319.5,15.3333 362.5,15.3333 405.5,16C 409.637,17.6367 412.637,20.47 414.5,24.5C 420.807,25.3306 427.141,25.8306 433.5,26C 434.416,26.3742 435.25,26.8742 436,27.5C 437.594,34.7265 437.928,42.0598 437,49.5C 436.722,50.4158 436.222,51.0825 435.5,51.5 Z M 85.5,37.5 C 88.8333,37.5 92.1667,37.5 95.5,37.5C 95.5,38.8333 95.5,40.1667 95.5,41.5C 92.1667,41.5 88.8333,41.5 85.5,41.5C 85.5,40.1667 85.5,38.8333 85.5,37.5 Z M 245.5,37.5 C 252.167,37.5 258.833,37.5 265.5,37.5C 265.5,38.8333 265.5,40.1667 265.5,41.5C 258.833,41.5 252.167,41.5 245.5,41.5C 245.5,40.1667 245.5,38.8333 245.5,37.5 Z M 415.5,37.5 C 418.833,37.5 422.167,37.5 425.5,37.5C 425.5,38.8333 425.5,40.1667 425.5,41.5C 422.167,41.5 418.833,41.5 415.5,41.5C 415.5,40.1667 415.5,38.8333 415.5,37.5 Z"/></g>
<g><path style="opacity:0.966" fill="#f45ba3" d="M 75.5,51.5 C 85.8333,51.5 96.1667,51.5 106.5,51.5C 104.38,61.6555 107.047,70.1555 114.5,77C 117.101,77.9203 119.768,78.587 122.5,79C 154.5,79.6667 186.5,79.6667 218.5,79C 227.762,77.9058 232.762,72.7391 233.5,63.5C 234.483,59.7016 234.817,55.7016 234.5,51.5C 248.5,51.5 262.5,51.5 276.5,51.5C 276.183,55.7016 276.517,59.7016 277.5,63.5C 278.238,72.7391 283.238,77.9058 292.5,79C 324.5,79.6667 356.5,79.6667 388.5,79C 396.331,78.1717 401.498,74.005 404,66.5C 404.499,61.5111 404.666,56.5111 404.5,51.5C 414.833,51.5 425.167,51.5 435.5,51.5C 435.082,52.2216 434.416,52.7216 433.5,53C 427.509,53.4995 421.509,53.6662 415.5,53.5C 418.699,69.7985 413.032,81.6319 398.5,89C 379.396,90.1485 360.229,90.6485 341,90.5C 322.833,90.3333 304.667,90.1667 286.5,90C 276.86,87.695 270.36,81.8616 267,72.5C 265.743,66.2312 265.243,59.8979 265.5,53.5C 258.833,53.5 252.167,53.5 245.5,53.5C 247.941,68.4343 242.941,79.9343 230.5,88C 228.5,88.6667 226.5,89.3333 224.5,90C 206.333,90.1667 188.167,90.3333 170,90.5C 150.771,90.6485 131.604,90.1485 112.5,89C 97.6287,81.7531 91.962,69.9198 95.5,53.5C 89.4908,53.6662 83.4908,53.4995 77.5,53C 76.5842,52.7216 75.9175,52.2216 75.5,51.5 Z"/></g>
<g><path style="opacity:0.956" fill="#f15ca4" d="M 187.5,137.5 C 179.648,137.175 171.982,137.508 164.5,138.5C 132.947,124.391 101.614,109.725 70.5,94.5C 69.5016,104.144 69.1682,113.81 69.5,123.5C 68.5318,121.393 68.1984,119.059 68.5,116.5C 65.1667,116.5 61.8333,116.5 58.5,116.5C 58.7678,118.099 58.4345,119.432 57.5,120.5C 57.3334,107.829 57.5001,95.1623 58,82.5C 59.2957,80.1854 61.2957,79.1854 64,79.5C 105.65,97.9094 146.816,117.243 187.5,137.5 Z"/></g>
<g><path style="opacity:0.956" fill="#f15ca4" d="M 453.5,120.5 C 452.566,119.432 452.232,118.099 452.5,116.5C 449.167,116.5 445.833,116.5 442.5,116.5C 442.802,119.059 442.468,121.393 441.5,123.5C 441.832,113.81 441.498,104.144 440.5,94.5C 410.042,109.397 379.375,123.731 348.5,137.5C 340.167,137.5 331.833,137.5 323.5,137.5C 364.184,117.243 405.35,97.9094 447,79.5C 449.704,79.1854 451.704,80.1854 453,82.5C 453.5,95.1623 453.667,107.829 453.5,120.5 Z"/></g>
<g><path style="opacity:0.962" fill="#ee5ea5" d="M 57.5,120.5 C 58.4345,119.432 58.7678,118.099 58.5,116.5C 61.8333,116.5 65.1667,116.5 68.5,116.5C 68.1984,119.059 68.5318,121.393 69.5,123.5C 84.6451,128.123 99.9784,132.456 115.5,136.5C 103.167,137.167 90.8333,137.833 78.5,138.5C 61.4687,133.992 44.4687,129.325 27.5,124.5C 26.5006,140.486 26.1672,156.486 26.5,172.5C 22.8333,172.5 19.1667,172.5 15.5,172.5C 15.3334,152.831 15.5,133.164 16,113.5C 18.8408,111.496 22.0074,110.996 25.5,112C 36.1567,114.942 46.8233,117.776 57.5,120.5 Z"/></g>
<g><path style="opacity:0.96" fill="#ed5ea6" d="M 495.5,172.5 C 491.833,172.5 488.167,172.5 484.5,172.5C 484.833,156.486 484.499,140.486 483.5,124.5C 480.668,125.58 477.835,126.58 475,127.5C 474.5,142.496 474.333,157.496 474.5,172.5C 470.833,172.5 467.167,172.5 463.5,172.5C 463.5,158.5 463.5,144.5 463.5,130.5C 453.167,133.167 442.833,135.833 432.5,138.5C 419.677,137.505 406.677,137.171 393.5,137.5C 409.5,132.833 425.5,128.167 441.5,123.5C 442.468,121.393 442.802,119.059 442.5,116.5C 445.833,116.5 449.167,116.5 452.5,116.5C 452.232,118.099 452.566,119.432 453.5,120.5C 464.177,117.776 474.843,114.942 485.5,112C 488.993,110.996 492.159,111.496 495,113.5C 495.5,133.164 495.667,152.831 495.5,172.5 Z"/></g>
<g><path style="opacity:0.951" fill="#ea60a7" d="M 115.5,136.5 C 148.732,145.974 182.066,154.807 215.5,163C 198.165,155.331 181.165,147.164 164.5,138.5C 171.982,137.508 179.648,137.175 187.5,137.5C 210.139,147.818 232.806,158.152 255.5,168.5C 278.183,158.158 300.85,147.824 323.5,137.5C 331.833,137.5 340.167,137.5 348.5,137.5C 332.048,145.892 315.381,154.059 298.5,162C 299.167,162.167 299.833,162.333 300.5,162.5C 331.461,153.956 362.461,145.623 393.5,137.5C 406.677,137.171 419.677,137.505 432.5,138.5C 395.196,148.827 357.862,159.16 320.5,169.5C 319.501,180.146 319.168,190.813 319.5,201.5C 315.833,201.5 312.167,201.5 308.5,201.5C 309.14,191.442 308.473,181.775 306.5,172.5C 273.329,172.168 240.329,172.502 207.5,173.5C 164.428,162.031 121.428,150.364 78.5,138.5C 90.8333,137.833 103.167,137.167 115.5,136.5 Z"/></g>
<g><path style="opacity:0.938" fill="#e662a9" d="M 207.5,173.5 C 240.329,172.502 273.329,172.168 306.5,172.5C 292.04,176.952 277.374,181.119 262.5,185C 261.524,191.076 261.19,197.242 261.5,203.5C 260.521,200.375 260.187,197.042 260.5,193.5C 257.167,193.5 253.833,193.5 250.5,193.5C 250.813,197.042 250.479,200.375 249.5,203.5C 249.81,197.242 249.476,191.076 248.5,185C 234.754,181.315 221.088,177.481 207.5,173.5 Z"/></g>
<g><path style="opacity:0.961" fill="#e064ab" d="M 117.5,201.5 C 104.323,201.171 91.3226,201.505 78.5,202.5C 74.2067,201.343 69.8734,200.343 65.5,199.5C 65.5,207.833 65.5,216.167 65.5,224.5C 61.8333,224.5 58.1667,224.5 54.5,224.5C 54.3335,212.495 54.5001,200.495 55,188.5C 56.8637,185.793 59.3637,184.959 62.5,186C 80.9953,191.037 99.3287,196.203 117.5,201.5 Z"/></g>
<g><path style="opacity:0.97" fill="#df64ac" d="M 15.5,172.5 C 19.1667,172.5 22.8333,172.5 26.5,172.5C 26.5,189.833 26.5,207.167 26.5,224.5C 22.8333,224.5 19.1667,224.5 15.5,224.5C 15.5,207.167 15.5,189.833 15.5,172.5 Z"/></g>
<g><path style="opacity:0.956" fill="#dc65ad" d="M 78.5,202.5 C 91.3226,201.505 104.323,201.171 117.5,201.5C 145.279,208.528 172.946,216.028 200.5,224C 201,224.5 201.5,225 202,225.5C 202.5,232.158 202.666,238.825 202.5,245.5C 198.833,245.5 195.167,245.5 191.5,245.5C 192.055,241.003 191.389,236.836 189.5,233C 152.438,222.922 115.438,212.755 78.5,202.5 Z"/></g>
<g><path style="opacity:0.97" fill="#df64ac" d="M 463.5,172.5 C 467.167,172.5 470.833,172.5 474.5,172.5C 474.5,189.833 474.5,207.167 474.5,224.5C 470.833,224.5 467.167,224.5 463.5,224.5C 463.5,207.167 463.5,189.833 463.5,172.5 Z"/></g>
<g><path style="opacity:0.97" fill="#df64ac" d="M 484.5,172.5 C 488.167,172.5 491.833,172.5 495.5,172.5C 495.5,189.833 495.5,207.167 495.5,224.5C 491.833,224.5 488.167,224.5 484.5,224.5C 484.5,207.167 484.5,189.833 484.5,172.5 Z"/></g>
<g><path style="opacity:0.97" fill="#d767af" d="M 15.5,224.5 C 19.1667,224.5 22.8333,224.5 26.5,224.5C 26.5,231.5 26.5,238.5 26.5,245.5C 22.8333,245.5 19.1667,245.5 15.5,245.5C 15.5,238.5 15.5,231.5 15.5,224.5 Z"/></g>
<g><path style="opacity:0.968" fill="#d767af" d="M 54.5,224.5 C 58.1667,224.5 61.8333,224.5 65.5,224.5C 65.5,232.167 65.5,239.833 65.5,247.5C 62.1691,245.702 58.5025,245.036 54.5,245.5C 54.5,238.5 54.5,231.5 54.5,224.5 Z"/></g>
<g><path style="opacity:0.918" fill="#da66ae" d="M 261.5,203.5 C 261.5,218.167 261.5,232.833 261.5,247.5C 257.5,244.833 253.5,244.833 249.5,247.5C 249.5,232.833 249.5,218.167 249.5,203.5C 250.479,200.375 250.813,197.042 250.5,193.5C 253.833,193.5 257.167,193.5 260.5,193.5C 260.187,197.042 260.521,200.375 261.5,203.5 Z"/></g>
<g><path style="opacity:0.97" fill="#d967ae" d="M 282.5,245.5 C 278.833,245.5 275.167,245.5 271.5,245.5C 271.333,231.496 271.5,217.496 272,203.5C 275.607,200.731 278.94,201.064 282,204.5C 282.5,218.163 282.667,231.829 282.5,245.5 Z"/></g>
<g><path style="opacity:0.97" fill="#da66ae" d="M 298.5,245.5 C 294.833,245.5 291.167,245.5 287.5,245.5C 287.333,229.83 287.5,214.163 288,198.5C 291.663,195.667 294.996,196 298,199.5C 298.5,214.83 298.667,230.163 298.5,245.5 Z"/></g>
<g><path style="opacity:0.97" fill="#d967ae" d="M 308.5,201.5 C 312.167,201.5 315.833,201.5 319.5,201.5C 319.5,216.167 319.5,230.833 319.5,245.5C 315.833,245.5 312.167,245.5 308.5,245.5C 308.5,230.833 308.5,216.167 308.5,201.5 Z"/></g>
<g><path style="opacity:0.97" fill="#d767af" d="M 463.5,224.5 C 467.167,224.5 470.833,224.5 474.5,224.5C 474.5,231.5 474.5,238.5 474.5,245.5C 470.833,245.5 467.167,245.5 463.5,245.5C 463.5,238.5 463.5,231.5 463.5,224.5 Z"/></g>
<g><path style="opacity:0.97" fill="#d767af" d="M 484.5,224.5 C 488.167,224.5 491.833,224.5 495.5,224.5C 495.5,231.5 495.5,238.5 495.5,245.5C 491.833,245.5 488.167,245.5 484.5,245.5C 484.5,238.5 484.5,231.5 484.5,224.5 Z"/></g>
<g><path style="opacity:0.95" fill="#cf6bb3" d="M 287.5,245.5 C 291.167,245.5 294.833,245.5 298.5,245.5C 298.666,253.507 298.5,261.507 298,269.5C 294.667,272.167 291.333,272.167 288,269.5C 287.5,261.507 287.334,253.507 287.5,245.5 Z"/></g>
<g><path style="opacity:0.988" fill="#ce6bb3" d="M 15.5,245.5 C 19.1667,245.5 22.8333,245.5 26.5,245.5C 26.5,252.167 26.5,258.833 26.5,265.5C 25.5318,267.607 25.1984,269.941 25.5,272.5C 22.1667,272.5 18.8333,272.5 15.5,272.5C 15.5,263.5 15.5,254.5 15.5,245.5 Z"/></g>
<g><path style="opacity:0.988" fill="#ce6bb3" d="M 191.5,245.5 C 195.167,245.5 198.833,245.5 202.5,245.5C 202.5,252.167 202.5,258.833 202.5,265.5C 201.532,267.607 201.198,269.941 201.5,272.5C 198.167,272.5 194.833,272.5 191.5,272.5C 191.5,263.5 191.5,254.5 191.5,245.5 Z"/></g>
<g><path style="opacity:0.973" fill="#cd6bb4" d="M 271.5,245.5 C 275.167,245.5 278.833,245.5 282.5,245.5C 282.666,255.172 282.5,264.839 282,274.5C 278.94,277.936 275.607,278.269 272,275.5C 271.5,265.506 271.334,255.506 271.5,245.5 Z"/></g>
<g><path style="opacity:0.988" fill="#ce6bb3" d="M 308.5,245.5 C 312.167,245.5 315.833,245.5 319.5,245.5C 319.5,254.5 319.5,263.5 319.5,272.5C 316.167,272.5 312.833,272.5 309.5,272.5C 309.802,269.941 309.468,267.607 308.5,265.5C 308.5,258.833 308.5,252.167 308.5,245.5 Z"/></g>
<g><path style="opacity:0.988" fill="#ce6bb3" d="M 463.5,245.5 C 467.167,245.5 470.833,245.5 474.5,245.5C 474.5,252.167 474.5,258.833 474.5,265.5C 473.532,267.607 473.198,269.941 473.5,272.5C 470.167,272.5 466.833,272.5 463.5,272.5C 463.5,263.5 463.5,254.5 463.5,245.5 Z"/></g>
<g><path style="opacity:0.988" fill="#ce6bb3" d="M 484.5,245.5 C 488.167,245.5 491.833,245.5 495.5,245.5C 495.5,254.5 495.5,263.5 495.5,272.5C 492.167,272.5 488.833,272.5 485.5,272.5C 485.802,269.941 485.468,267.607 484.5,265.5C 484.5,258.833 484.5,252.167 484.5,245.5 Z"/></g>
<g><path style="opacity:0.993" fill="#c56fb7" d="M 26.5,265.5 C 26.5,276.833 26.5,288.167 26.5,299.5C 25.596,298.791 25.2627,297.791 25.5,296.5C 22.1667,296.5 18.8333,296.5 15.5,296.5C 15.5,288.5 15.5,280.5 15.5,272.5C 18.8333,272.5 22.1667,272.5 25.5,272.5C 25.1984,269.941 25.5318,267.607 26.5,265.5 Z"/></g>
<g><path style="opacity:0.949" fill="#c86eb6" d="M 54.5,245.5 C 58.5025,245.036 62.1691,245.702 65.5,247.5C 65.1681,257.522 65.5015,267.522 66.5,277.5C 80.3241,281.368 93.9908,285.368 107.5,289.5C 95.1667,290.167 82.8333,290.833 70.5,291.5C 66.6254,290.03 62.6254,288.863 58.5,288C 57.0692,287.535 55.9025,286.701 55,285.5C 54.5001,272.171 54.3334,258.837 54.5,245.5 Z"/></g>
<g><path style="opacity:0.993" fill="#c56fb7" d="M 202.5,265.5 C 202.5,276.833 202.5,288.167 202.5,299.5C 201.596,298.791 201.263,297.791 201.5,296.5C 198.167,296.5 194.833,296.5 191.5,296.5C 191.5,288.5 191.5,280.5 191.5,272.5C 194.833,272.5 198.167,272.5 201.5,272.5C 201.198,269.941 201.532,267.607 202.5,265.5 Z"/></g>
<g><path style="opacity:0.889" fill="#c96db5" d="M 261.5,247.5 C 261.5,261.833 261.5,276.167 261.5,290.5C 257.5,290.5 253.5,290.5 249.5,290.5C 249.5,276.167 249.5,261.833 249.5,247.5C 253.5,244.833 257.5,244.833 261.5,247.5 Z"/></g>
<g><path style="opacity:0.993" fill="#c56fb7" d="M 308.5,265.5 C 309.468,267.607 309.802,269.941 309.5,272.5C 312.833,272.5 316.167,272.5 319.5,272.5C 319.5,280.5 319.5,288.5 319.5,296.5C 316.167,296.5 312.833,296.5 309.5,296.5C 309.737,297.791 309.404,298.791 308.5,299.5C 308.5,288.167 308.5,276.833 308.5,265.5 Z"/></g>
<g><path style="opacity:0.993" fill="#c56fb7" d="M 474.5,265.5 C 474.5,276.833 474.5,288.167 474.5,299.5C 473.596,298.791 473.263,297.791 473.5,296.5C 470.167,296.5 466.833,296.5 463.5,296.5C 463.5,288.5 463.5,280.5 463.5,272.5C 466.833,272.5 470.167,272.5 473.5,272.5C 473.198,269.941 473.532,267.607 474.5,265.5 Z"/></g>
<g><path style="opacity:0.993" fill="#c56fb7" d="M 484.5,265.5 C 485.468,267.607 485.802,269.941 485.5,272.5C 488.833,272.5 492.167,272.5 495.5,272.5C 495.5,280.5 495.5,288.5 495.5,296.5C 492.167,296.5 488.833,296.5 485.5,296.5C 485.737,297.791 485.404,298.791 484.5,299.5C 484.5,288.167 484.5,276.833 484.5,265.5 Z"/></g>
<g><path style="opacity:0.962" fill="#be73ba" d="M 107.5,289.5 C 135.494,296.832 163.494,304.165 191.5,311.5C 191.5,306.5 191.5,301.5 191.5,296.5C 194.833,296.5 198.167,296.5 201.5,296.5C 201.263,297.791 201.596,298.791 202.5,299.5C 202.666,307.174 202.5,314.841 202,322.5C 200.818,324.357 199.151,325.357 197,325.5C 154.846,314.059 112.679,302.725 70.5,291.5C 82.8333,290.833 95.1667,290.167 107.5,289.5 Z"/></g>
<g><path style="opacity:0.889" fill="#bf72ba" d="M 249.5,290.5 C 253.5,290.5 257.5,290.5 261.5,290.5C 261.5,297.5 261.5,304.5 261.5,311.5C 257.5,311.5 253.5,311.5 249.5,311.5C 249.5,304.5 249.5,297.5 249.5,290.5 Z"/></g>
<g><path style="opacity:0.987" fill="#ba74bc" d="M 15.5,296.5 C 18.8333,296.5 22.1667,296.5 25.5,296.5C 25.2627,297.791 25.596,298.791 26.5,299.5C 26.5,308.167 26.5,316.833 26.5,325.5C 23.1691,323.702 19.5025,323.036 15.5,323.5C 15.5,314.5 15.5,305.5 15.5,296.5 Z"/></g>
<g><path style="opacity:0.987" fill="#ba74bc" d="M 319.5,296.5 C 319.5,305.5 319.5,314.5 319.5,323.5C 315.498,323.036 311.831,323.702 308.5,325.5C 308.5,316.833 308.5,308.167 308.5,299.5C 309.404,298.791 309.737,297.791 309.5,296.5C 312.833,296.5 316.167,296.5 319.5,296.5 Z"/></g>
<g><path style="opacity:0.987" fill="#ba74bc" d="M 463.5,296.5 C 466.833,296.5 470.167,296.5 473.5,296.5C 473.263,297.791 473.596,298.791 474.5,299.5C 474.5,308.167 474.5,316.833 474.5,325.5C 471.169,323.702 467.502,323.036 463.5,323.5C 463.5,314.5 463.5,305.5 463.5,296.5 Z"/></g>
<g><path style="opacity:0.987" fill="#ba74bc" d="M 495.5,296.5 C 495.5,305.5 495.5,314.5 495.5,323.5C 491.498,323.036 487.831,323.702 484.5,325.5C 484.5,316.833 484.5,308.167 484.5,299.5C 485.404,298.791 485.737,297.791 485.5,296.5C 488.833,296.5 492.167,296.5 495.5,296.5 Z"/></g>
<g><path style="opacity:0.959" fill="#b277c0" d="M 123.5,336.5 C 111.167,337.167 98.8333,337.833 86.5,338.5C 76.6206,335.375 66.6206,332.542 56.5,330C 54.5218,327.503 54.0218,324.669 55,321.5C 56.4733,319.993 58.3066,319.326 60.5,319.5C 81.82,324.411 102.82,330.078 123.5,336.5 Z"/></g>
<g><path style="opacity:0.902" fill="#b477bf" d="M 249.5,311.5 C 253.5,311.5 257.5,311.5 261.5,311.5C 261.5,319.5 261.5,327.5 261.5,335.5C 257.5,338.167 253.5,338.167 249.5,335.5C 249.5,327.5 249.5,319.5 249.5,311.5 Z"/></g>
<g><path style="opacity:0.964" fill="#ad79c1" d="M 15.5,323.5 C 19.5025,323.036 23.1691,323.702 26.5,325.5C 26.5,333.5 26.5,341.5 26.5,349.5C 22.8333,349.5 19.1667,349.5 15.5,349.5C 15.5,340.833 15.5,332.167 15.5,323.5 Z"/></g>
<g><path style="opacity:0.964" fill="#ad79c1" d="M 319.5,323.5 C 319.5,332.167 319.5,340.833 319.5,349.5C 315.833,349.5 312.167,349.5 308.5,349.5C 308.5,341.5 308.5,333.5 308.5,325.5C 311.831,323.702 315.498,323.036 319.5,323.5 Z"/></g>
<g><path style="opacity:0.964" fill="#ad79c1" d="M 463.5,323.5 C 467.502,323.036 471.169,323.702 474.5,325.5C 474.5,333.5 474.5,341.5 474.5,349.5C 470.833,349.5 467.167,349.5 463.5,349.5C 463.5,340.833 463.5,332.167 463.5,323.5 Z"/></g>
<g><path style="opacity:0.964" fill="#ad79c1" d="M 495.5,323.5 C 495.5,332.167 495.5,340.833 495.5,349.5C 491.833,349.5 488.167,349.5 484.5,349.5C 484.5,341.5 484.5,333.5 484.5,325.5C 487.831,323.702 491.498,323.036 495.5,323.5 Z"/></g>
<g><path style="opacity:0.946" fill="#ac79c2" d="M 123.5,336.5 C 138.912,340.186 154.246,344.186 169.5,348.5C 156.5,349.167 143.5,349.833 130.5,350.5C 115.937,346.192 101.27,342.192 86.5,338.5C 98.8333,337.833 111.167,337.167 123.5,336.5 Z"/></g>
<g><path style="opacity:0.959" fill="#a87bc3" d="M 111.5,354.5 C 98.3226,354.171 85.3226,354.505 72.5,355.5C 67.8523,354.338 63.1857,353.171 58.5,352C 54.7084,349.947 53.5418,346.781 55,342.5C 56.2991,341.02 57.9658,340.354 60,340.5C 77.4266,344.646 94.5933,349.313 111.5,354.5 Z"/></g>
<g><path style="opacity:0.956" fill="#a57cc5" d="M 169.5,348.5 C 179.88,351.293 190.213,354.293 200.5,357.5C 202.395,359.867 202.895,362.534 202,365.5C 200.527,367.007 198.693,367.674 196.5,367.5C 174.411,362.144 152.411,356.478 130.5,350.5C 143.5,349.833 156.5,349.167 169.5,348.5 Z"/></g>
<g><path style="opacity:0.917" fill="#a77cc4" d="M 249.5,335.5 C 253.5,338.167 257.5,338.167 261.5,335.5C 261.5,343.5 261.5,351.5 261.5,359.5C 257.5,362.167 253.5,362.167 249.5,359.5C 249.5,351.5 249.5,343.5 249.5,335.5 Z"/></g>
<g><path style="opacity:0.941" fill="#a07ec6" d="M 72.5,355.5 C 85.3226,354.505 98.3226,354.171 111.5,354.5C 133.21,360.011 154.876,365.677 176.5,371.5C 163.167,372.167 149.833,372.833 136.5,373.5C 115.167,367.5 93.8333,361.5 72.5,355.5 Z"/></g>
<g><path style="opacity:0.988" fill="#9f7fc7" d="M 15.5,349.5 C 19.1667,349.5 22.8333,349.5 26.5,349.5C 26.5,361.167 26.5,372.833 26.5,384.5C 22.8333,384.5 19.1667,384.5 15.5,384.5C 15.5,372.833 15.5,361.167 15.5,349.5 Z"/></g>
<g><path style="opacity:0.988" fill="#9f7fc7" d="M 308.5,349.5 C 312.167,349.5 315.833,349.5 319.5,349.5C 319.5,361.167 319.5,372.833 319.5,384.5C 315.833,384.5 312.167,384.5 308.5,384.5C 308.5,372.833 308.5,361.167 308.5,349.5 Z"/></g>
<g><path style="opacity:0.988" fill="#9f7fc7" d="M 463.5,349.5 C 467.167,349.5 470.833,349.5 474.5,349.5C 474.5,361.167 474.5,372.833 474.5,384.5C 470.833,384.5 467.167,384.5 463.5,384.5C 463.5,372.833 463.5,361.167 463.5,349.5 Z"/></g>
<g><path style="opacity:0.988" fill="#9f7fc7" d="M 484.5,349.5 C 488.167,349.5 491.833,349.5 495.5,349.5C 495.5,361.167 495.5,372.833 495.5,384.5C 491.833,384.5 488.167,384.5 484.5,384.5C 484.5,372.833 484.5,361.167 484.5,349.5 Z"/></g>
<g><path style="opacity:0.938" fill="#9a81c9" d="M 142.5,384.5 C 129.323,384.171 116.323,384.505 103.5,385.5C 88.185,381.338 72.8517,377.171 57.5,373C 54.7104,370.79 53.877,367.956 55,364.5C 56.0282,362.484 57.6948,361.484 60,361.5C 87.7257,368.803 115.226,376.47 142.5,384.5 Z"/></g>
<g><path style="opacity:0.897" fill="#9b80c8" d="M 249.5,359.5 C 253.5,362.167 257.5,362.167 261.5,359.5C 261.5,367.167 261.5,374.833 261.5,382.5C 257.5,385.167 253.5,385.167 249.5,382.5C 249.5,374.833 249.5,367.167 249.5,359.5 Z"/></g>
<g><path style="opacity:0.944" fill="#9881ca" d="M 176.5,371.5 C 184.569,373.689 192.569,376.189 200.5,379C 203.908,384.08 202.741,387.58 197,389.5C 176.846,384.059 156.679,378.725 136.5,373.5C 149.833,372.833 163.167,372.167 176.5,371.5 Z"/></g>
<g><path style="opacity:0.97" fill="#8b86cf" d="M 15.5,384.5 C 19.1667,384.5 22.8333,384.5 26.5,384.5C 26.5,395.167 26.5,405.833 26.5,416.5C 22.8333,416.5 19.1667,416.5 15.5,416.5C 15.5,405.833 15.5,395.167 15.5,384.5 Z"/></g>
<g><path style="opacity:0.955" fill="#8e86cf" d="M 103.5,385.5 C 116.323,384.505 129.323,384.171 142.5,384.5C 161.982,389.037 181.315,394.204 200.5,400C 203.122,403.13 203.122,406.297 200.5,409.5C 199.228,410.046 197.894,410.379 196.5,410.5C 165.444,402.32 134.444,393.986 103.5,385.5 Z"/></g>
<g><path style="opacity:0.97" fill="#8e85ce" d="M 308.5,384.5 C 312.167,384.5 315.833,384.5 319.5,384.5C 319.5,390.833 319.5,397.167 319.5,403.5C 315.833,403.5 312.167,403.5 308.5,403.5C 308.5,397.167 308.5,390.833 308.5,384.5 Z"/></g>
<g><path style="opacity:0.97" fill="#8e85ce" d="M 463.5,384.5 C 467.167,384.5 470.833,384.5 474.5,384.5C 474.5,390.833 474.5,397.167 474.5,403.5C 470.833,403.5 467.167,403.5 463.5,403.5C 463.5,397.167 463.5,390.833 463.5,384.5 Z"/></g>
<g><path style="opacity:0.97" fill="#8b86cf" d="M 484.5,384.5 C 488.167,384.5 491.833,384.5 495.5,384.5C 495.5,395.167 495.5,405.833 495.5,416.5C 491.833,416.5 488.167,416.5 484.5,416.5C 484.5,405.833 484.5,395.167 484.5,384.5 Z"/></g>
<g><path style="opacity:0.981" fill="#8b86cf" d="M 249.5,382.5 C 253.5,385.167 257.5,385.167 261.5,382.5C 261.5,390.5 261.5,398.5 261.5,406.5C 260.566,407.568 260.232,408.901 260.5,410.5C 257.167,410.5 253.833,410.5 250.5,410.5C 250.768,408.901 250.434,407.568 249.5,406.5C 249.5,398.5 249.5,390.5 249.5,382.5 Z"/></g>
<g><path style="opacity:0.965" fill="#7c8dd6" d="M 463.5,403.5 C 467.167,403.5 470.833,403.5 474.5,403.5C 474.334,410.508 474.5,417.508 475,424.5C 477.835,423.58 480.668,422.58 483.5,421.5C 484.452,419.955 484.785,418.288 484.5,416.5C 488.167,416.5 491.833,416.5 495.5,416.5C 495.666,420.846 495.499,425.179 495,429.5C 494.097,430.701 492.931,431.535 491.5,432C 487.375,432.863 483.375,434.03 479.5,435.5C 466.344,434.504 453.01,434.171 439.5,434.5C 447.22,431.566 455.22,429.233 463.5,427.5C 463.5,419.5 463.5,411.5 463.5,403.5 Z"/></g>
<g><path style="opacity:0.959" fill="#7a8fd8" d="M 15.5,416.5 C 19.1667,416.5 22.8333,416.5 26.5,416.5C 26.1412,418.766 26.8078,420.599 28.5,422C 42.2458,425.685 55.9125,429.519 69.5,433.5C 56.6774,434.495 43.6774,434.829 30.5,434.5C 25.2201,433.976 20.3868,432.309 16,429.5C 15.501,425.179 15.3343,420.846 15.5,416.5 Z"/></g>
<g><path style="opacity:0.929" fill="#7c8dd6" d="M 249.5,406.5 C 250.434,407.568 250.768,408.901 250.5,410.5C 253.833,410.5 257.167,410.5 260.5,410.5C 260.232,408.901 260.566,407.568 261.5,406.5C 261.5,415.833 261.5,425.167 261.5,434.5C 257.5,434.5 253.5,434.5 249.5,434.5C 249.5,425.167 249.5,415.833 249.5,406.5 Z"/></g>
<g><path style="opacity:0.975" fill="#7e8cd6" d="M 308.5,403.5 C 312.167,403.5 315.833,403.5 319.5,403.5C 319.5,413.833 319.5,424.167 319.5,434.5C 315.833,434.5 312.167,434.5 308.5,434.5C 308.5,424.167 308.5,413.833 308.5,403.5 Z"/></g>
<g><path style="opacity:0.946" fill="#6f92dc" d="M 439.5,434.5 C 453.01,434.171 466.344,434.504 479.5,435.5C 458.883,441.039 438.216,446.373 417.5,451.5C 404.323,451.829 391.323,451.495 378.5,450.5C 398.728,444.757 419.061,439.424 439.5,434.5 Z"/></g>
<g><path style="opacity:0.929" fill="#6a94de" d="M 249.5,434.5 C 253.5,434.5 257.5,434.5 261.5,434.5C 261.5,442.833 261.5,451.167 261.5,459.5C 257.5,460.833 253.5,460.833 249.5,459.5C 249.5,451.167 249.5,442.833 249.5,434.5 Z"/></g>
<g><path style="opacity:0.973" fill="#6a95de" d="M 69.5,433.5 C 101.556,441.963 133.556,450.63 165.5,459.5C 153.167,460.167 140.833,460.833 128.5,461.5C 95.6463,452.789 62.9796,443.789 30.5,434.5C 43.6774,434.829 56.6774,434.495 69.5,433.5 Z"/></g>
<g><path style="opacity:0.942" fill="#6597e0" d="M 308.5,434.5 C 312.167,434.5 315.833,434.5 319.5,434.5C 319.168,445.187 319.501,455.854 320.5,466.5C 339.846,461.164 359.179,455.83 378.5,450.5C 391.323,451.495 404.323,451.829 417.5,451.5C 396.628,457.638 375.628,463.638 354.5,469.5C 339.342,468.504 324.009,468.17 308.5,468.5C 308.5,457.167 308.5,445.833 308.5,434.5 Z"/></g>
<g><path style="opacity:0.962" fill="#569de6" d="M 165.5,459.5 C 193.372,467.069 221.205,474.736 249,482.5C 249.5,474.841 249.666,467.174 249.5,459.5C 253.5,460.833 257.5,460.833 261.5,459.5C 261.169,467.196 261.503,474.862 262.5,482.5C 278.132,478.397 293.466,473.73 308.5,468.5C 324.009,468.17 339.342,468.504 354.5,469.5C 321.606,478.576 288.606,487.243 255.5,495.5C 213.028,484.632 170.694,473.299 128.5,461.5C 140.833,460.833 153.167,460.167 165.5,459.5 Z"/></g>
</svg>
